<svg width="36" height="41" viewBox="0 0 36 41" fill="none" xmlns="http://www.w3.org/2000/svg">
<path d="M7.67578 0.251953C7.67967 0.250628 7.74313 0.228759 7.99023 0.388672C12.0616 3.02442 16.1541 5.53863 20.208 8.18652C22.2206 9.50108 24.3112 10.5534 26.0557 12.1494C27.4542 13.4289 28.3865 15.0947 28.8896 17.0137C29.4861 19.2885 29.125 21.5253 28.666 23.8223C28.146 26.4244 27.656 29.0351 27.1514 31.6377C26.5762 34.6044 25.9828 37.5722 25.4385 40.5488C25.4048 40.7331 25.3672 40.7536 25.375 40.748C25.3811 40.7439 25.3808 40.7473 25.3574 40.749C25.3309 40.751 25.2902 40.7491 25.2246 40.7393C23.4548 40.4724 21.6852 40.2021 19.8506 39.9199C19.7471 39.8134 19.7044 39.7082 19.6904 39.5957C19.6726 39.4518 19.6966 39.2971 19.7275 39.0986C20.1783 36.2078 20.6387 33.3183 21.1084 30.4307C21.3672 28.8392 22.1135 27.5081 23.1699 26.3232C23.5608 25.8848 23.7974 25.4931 23.7695 25.0635C23.7423 24.6446 23.4656 24.2665 23.0752 23.8467C22.0686 22.7646 20.7362 22.4373 19.543 22.0654C18.7626 21.8222 18.0219 22.1367 17.5332 22.8369C17.2886 23.1874 17.1423 23.5561 17.1172 23.9424C17.0921 24.3294 17.1894 24.7154 17.4004 25.0967C17.4815 25.2433 17.5668 25.3864 17.6504 25.5254C17.7347 25.6656 17.8171 25.8015 17.8955 25.9395C18.3841 26.7996 18.5797 27.7143 18.4209 28.6953C17.8827 32.0171 17.3604 35.3378 16.7764 38.6475C16.72 38.967 16.6948 39.18 16.5049 39.3584C15.4663 39.3997 14.4965 39.1841 13.4688 39.0195C12.9956 38.9438 12.4873 38.8824 12.0283 38.8145C11.8975 38.7951 11.8264 38.7725 11.7891 38.7559C11.7912 38.7427 11.7948 38.723 11.8018 38.6963C11.8105 38.6625 11.8215 38.6243 11.8359 38.5771C11.8499 38.5313 11.8668 38.4783 11.8828 38.4209C12.7381 35.3592 13.518 32.2463 13.3398 28.959C13.323 28.6474 13.2743 28.3427 13.2324 28.0557C13.1899 27.7642 13.154 27.4862 13.1514 27.2031C13.1312 25.0023 13.827 23.0033 14.8125 21.0938C14.8878 20.9479 14.9395 20.8167 14.958 20.6973C14.9776 20.5707 14.9616 20.4444 14.8867 20.335C14.8183 20.2352 14.721 20.18 14.6504 20.1465C14.5895 20.1177 14.4894 20.0799 14.4414 20.0596C13.0113 19.4522 11.6014 18.8095 10.2617 18.0381C7.56358 16.4845 4.93062 14.8642 2.62207 12.7344C2.0728 12.2276 1.5728 11.7209 1.01953 11.2002C0.839083 11.0303 0.769605 10.9149 0.753906 10.8174C0.739569 10.7283 0.761979 10.5935 0.927734 10.3623C1.72398 9.25173 2.45325 8.0534 3.2334 6.89551C3.41314 6.9045 3.55672 6.98453 3.73926 7.10449C7.30812 9.44988 10.8741 11.8038 14.457 14.1289C15.6435 14.8989 16.476 15.9101 16.7891 17.3467C16.9108 17.905 17.1321 18.4794 17.6191 18.8955C18.7033 19.8213 20.3146 19.4115 20.916 18.0566C21.3037 17.1831 21.695 16.3785 22.3184 15.707C22.9711 15.0038 22.9022 14.1316 22.5957 13.3701C22.2762 12.5769 21.6298 12.1931 20.8389 12.1309C20.3939 12.0959 19.9786 12.1927 19.5908 12.3027C18.7018 12.555 17.8767 12.46 17.0801 11.9453C13.2012 9.43922 9.37615 6.87285 5.50098 4.35059C5.36898 4.26466 5.26607 4.18819 5.18457 4.06445C5.93237 2.85235 6.70329 1.70222 7.45898 0.521484C7.52204 0.422977 7.56806 0.355631 7.60938 0.308594C7.64923 0.263236 7.66993 0.253987 7.67578 0.251953Z" fill="#FDF8E5" stroke="#3A643C" stroke-width="0.5"/>
<path d="M4.93604 4.28418C6.17878 4.86199 7.23154 5.70078 8.40479 6.4668C11.2401 8.31801 14.0512 10.211 16.8677 12.0996C17.7471 12.6893 18.6707 12.7437 19.6138 12.4023C20.5922 12.0482 21.4949 12.283 21.9907 12.9453L22.0845 13.083C22.3625 13.5369 22.4635 14.0154 22.397 14.4834C22.3302 14.9528 22.0919 15.4287 21.6636 15.8691C21.0762 16.4731 20.8274 17.2514 20.5552 17.9307C20.2427 18.7102 19.5218 19.1877 18.7778 19.1465C18.3577 19.1231 17.9682 19.0196 17.6724 18.8271C17.3835 18.6393 17.1766 18.3626 17.1118 17.9609C16.6604 15.1593 14.6299 13.9592 12.7349 12.7314C9.73937 10.7907 6.78034 8.78986 3.80322 6.80859C3.71321 6.74869 3.62981 6.67305 3.52783 6.57422C3.97208 5.79437 4.43518 5.04734 4.93604 4.28418Z" fill="#E0E8E2" stroke="#3A643C" stroke-width="0.5"/>
<path d="M18.895 22.3037C20.7127 22.6043 22.3441 23.1841 23.4907 24.6279C23.6601 24.8412 23.7607 25.0745 23.7729 25.2852C23.7844 25.4853 23.7184 25.6799 23.5239 25.8496C21.5039 27.611 20.8542 29.9317 20.5181 32.3799C20.1783 34.8543 19.7353 37.3083 19.3267 39.8467C18.4433 39.7667 17.5572 39.6417 16.6206 39.501C17.1958 35.8561 17.8484 32.231 18.4565 28.5879C18.6688 27.3158 18.0964 26.2525 17.4272 25.2959C17.0374 24.7386 16.9506 24.141 17.0972 23.6289C17.244 23.1165 17.6308 22.6674 18.229 22.4189C18.4719 22.3181 18.6916 22.2702 18.895 22.3037Z" fill="#E0E8E2" stroke="#3A643C" stroke-width="0.5"/>
<path d="M32.1151 15.1046C32.9842 14.7897 33.7917 14.4781 34.6014 14.1732C34.8851 14.0664 35.1891 14.0523 35.2892 14.4208C35.3825 14.7647 35.355 15.1135 34.9301 15.2513C34.0858 15.525 33.2465 15.8177 32.4085 16.1135C31.9926 16.2603 31.4954 16.5645 31.2981 15.8985C31.1086 15.2589 31.7015 15.267 32.1151 15.1046Z" fill="#3A643C"/>
<path d="M31.0533 12.1023C31.7616 11.4874 32.4367 10.9276 33.0799 10.3249C33.3681 10.0549 33.5609 10.0918 33.8047 10.369C34.0813 10.6834 33.9956 10.9395 33.7417 11.1749C32.8762 11.9772 32.0136 12.784 31.129 13.559C30.9508 13.7151 30.6744 13.7137 30.4908 13.4828C30.3152 13.2619 30.3181 12.9882 30.4658 12.7652C30.6189 12.534 30.8244 12.3465 31.0533 12.1023Z" fill="#3A643C"/>
<path d="M33.3737 19.2277C32.8747 19.3287 32.4934 19.0442 32.0688 19.0465C31.7375 19.0482 31.7323 18.738 31.7159 18.4508C31.6947 18.0796 31.898 18.0592 32.1393 18.083C33.2389 18.1913 34.3387 18.2976 35.4371 18.4193C35.769 18.4561 35.7692 18.7423 35.7845 19.0288C35.8047 19.4075 35.5896 19.3873 35.3546 19.3938C34.7113 19.4117 34.0724 19.3862 33.3737 19.2277Z" fill="#3A643C"/>
<path d="M24.5298 17.6934C24.5635 17.6927 24.681 17.7093 24.8511 17.9316C25.3134 18.5361 25.7478 19.1623 26.106 19.8252C26.2768 20.1415 26.2495 20.3535 26.2007 20.4531C26.1591 20.5379 26.0517 20.6451 25.7837 20.6504C25.0864 20.664 24.424 20.6772 23.7769 20.6045C23.3532 20.5569 23.2418 20.4241 23.2046 20.3428C23.1504 20.2238 23.1278 19.9571 23.3237 19.4453C23.6676 18.8494 23.8891 18.3805 24.2046 17.9482C24.3725 17.7182 24.4932 17.6942 24.5298 17.6934Z" fill="#E0E8E2" stroke="#3A643C"/>
</svg>
