<svg width="52" height="59" viewBox="0 0 52 59" fill="none" xmlns="http://www.w3.org/2000/svg">
<path d="M51.0435 0.766855C52.1961 6.2415 50.2203 11.675 47.6682 16.4499C45.4042 20.6073 42.6875 24.5177 39.6826 28.1401C33.714 35.2612 26.3459 41.2298 18.1545 45.6342C13.5443 48.104 8.6459 50.1209 3.58289 51.5205C2.30684 51.8909 1.77173 49.874 3.04778 49.5447C11.7331 47.1161 19.9245 42.9586 27.0456 37.4428C34.1256 31.9682 40.2177 25.1763 44.7456 17.4378C47.5447 12.6629 50.2614 6.98243 49.0677 1.30197C48.9442 0.766856 49.2323 0.190576 49.7675 0.025925C50.3026 -0.0975632 50.92 0.23174 51.0435 0.766855Z" fill="#3A643B"/>
<path d="M12.6392 32.7092C9.88133 37.2371 7.16459 41.8061 4.40669 46.334C4.07739 46.8691 3.78925 47.3631 3.45995 47.8982C3.17181 48.3922 2.7602 48.8861 2.59555 49.4624C2.34857 50.2033 3.17181 50.5738 3.78925 50.7796C6.17669 51.6852 8.64645 52.4261 11.1162 53.2494C13.9564 54.1961 16.7967 55.184 19.6369 56.1308C20.8718 56.5424 20.3367 58.5593 19.1018 58.1066C16.385 57.201 13.6683 56.2954 10.9516 55.3487C8.35832 54.4842 5.7239 53.7022 3.17181 52.7143C2.14274 52.3026 1.07252 51.7263 0.660892 50.6561C0.16694 49.3389 0.907874 48.104 1.56648 47.0338C3.00717 44.6464 4.44787 42.2589 5.88856 39.8715C7.53507 37.1136 9.18157 34.3968 10.8692 31.6389C11.5278 30.5275 13.2978 31.5566 12.6392 32.7092Z" fill="#3A643B"/>
</svg>
