<svg width="65" height="64" viewBox="0 0 65 64" fill="none" xmlns="http://www.w3.org/2000/svg">
<path d="M32.5 64C50.1731 64 64.5 49.6731 64.5 32C64.5 14.3269 50.1731 0 32.5 0C14.8269 0 0.5 14.3269 0.5 32C0.5 49.6731 14.8269 64 32.5 64Z" fill="#E0E8E2"/>
<path d="M44.8909 36.7827C35.9391 38.7827 23.6305 45.7827 25.8684 41.2827C21.9181 38.7907 46.4524 29.3851 34.82 25.2834C40.8576 19.8851 42.6189 19.2908 46.5693 21.7828C50.5196 24.2748 48.9314 28.3586 44.8909 36.7827Z" fill="#FDF8E5"/>
<path d="M39.4746 38.5C37.7962 43 35.5582 45.5 30.523 45C26.1971 45 23.8092 41.7615 23.8092 39C22.1307 35 26.7566 37 31.0825 37C35.4084 37 39.4746 35.7386 39.4746 38.5Z" fill="#FDF8E5"/>
<path d="M15.009 35.1694C13.3351 36.4167 12.3757 38.3481 12.3757 40.4694V47.5864H11.5V40.4694C11.5 38.0616 12.5898 35.8687 14.491 34.4524C16.4303 33.0072 18.8739 32.6037 21.1959 33.347C23.3839 34.0467 25.0363 34.3968 25.9598 34.3501C29.5243 34.1851 32.5359 31.1461 32.5359 27.7144C32.5359 25.7825 32.0534 24.8137 31.5424 23.788C30.9736 22.6439 30.3278 21.3477 30.3278 18.6735V12.0013H31.2035V18.6735C31.2035 21.1356 31.7732 22.2796 32.3244 23.3863C32.8591 24.4601 33.4116 25.5704 33.4116 27.7144C33.4116 31.6069 30.0174 35.0529 26 35.2393C24.9518 35.2886 23.2503 34.9372 20.9327 34.1957C18.8805 33.5392 16.721 33.8937 15.009 35.1694ZM36.9626 25.859C36.9626 25.267 37.4364 24.7857 38.0188 24.7857C38.6015 24.7857 39.0753 25.2674 39.0753 25.859C39.0753 26.4506 38.6015 26.9324 38.0188 26.9324C37.4364 26.9319 36.9626 26.4506 36.9626 25.859ZM37.8384 25.859C37.8384 25.9605 37.9194 26.0428 38.0188 26.0428C38.1181 26.0428 38.1996 25.9605 38.1996 25.859C38.1996 25.7576 38.1181 25.6753 38.0188 25.6753C37.9194 25.6753 37.8384 25.7576 37.8384 25.859ZM36.7148 37.5794C36.7148 36.9878 37.1886 36.5061 37.7714 36.5061C38.3542 36.5061 38.8279 36.9878 38.8279 37.5794C38.8279 38.1715 38.3542 38.6528 37.7714 38.6528C37.1886 38.6528 36.7148 38.1715 36.7148 37.5794ZM37.5905 37.5794C37.5905 37.6808 37.672 37.7631 37.7714 37.7631C37.8708 37.7631 37.9522 37.6804 37.9522 37.5794C37.9522 37.4784 37.8712 37.3962 37.7714 37.3962C37.6715 37.3962 37.5905 37.4784 37.5905 37.5794ZM43.115 30.591C42.5326 30.591 42.0589 30.1092 42.0589 29.5176C42.0589 28.926 42.5326 28.4443 43.115 28.4443C43.6978 28.4443 44.1715 28.926 44.1715 29.5176C44.1715 30.1097 43.6978 30.591 43.115 30.591ZM43.115 29.7013C43.2148 29.7013 43.2958 29.6186 43.2958 29.5176C43.2958 29.4167 43.2144 29.3339 43.115 29.3339C43.0156 29.3339 42.9346 29.4162 42.9346 29.5176C42.9346 29.619 43.0156 29.7013 43.115 29.7013ZM44.3129 35.4532C44.3129 36.0453 43.8392 36.5266 43.2564 36.5266C42.674 36.5266 42.2003 36.0448 42.2003 35.4532C42.2003 34.8616 42.674 34.3799 43.2564 34.3799C43.8392 34.3799 44.3129 34.8616 44.3129 35.4532ZM43.4372 35.4532C43.4372 35.3518 43.3558 35.2695 43.2564 35.2695C43.157 35.2695 43.076 35.3518 43.076 35.4532C43.076 35.5546 43.157 35.6369 43.2564 35.6369C43.3558 35.6369 43.4372 35.5542 43.4372 35.4532ZM29.8532 39.6905C29.5624 39.1776 29.7358 38.5198 30.2402 38.224C30.7442 37.9286 31.3914 38.1043 31.6834 38.6167C31.8244 38.8654 31.8621 39.1545 31.7889 39.4316C31.7154 39.7083 31.5407 39.94 31.2964 40.0833C31.1304 40.1802 30.9491 40.2265 30.77 40.2265C30.4049 40.2265 30.0489 40.0339 29.8532 39.6905ZM30.6115 39.2457C30.661 39.3324 30.7709 39.3636 30.8581 39.3124C30.9145 39.2795 30.9356 39.2283 30.9426 39.2008C30.9496 39.1732 30.9566 39.1189 30.9242 39.0615C30.8909 39.0028 30.8296 38.9695 30.7674 38.9695C30.7372 38.9695 30.7057 38.9775 30.6777 38.9939C30.5918 39.0451 30.5621 39.1576 30.6115 39.2457ZM42.8006 31.6105L42.569 30.7524C40.8219 31.2391 39.7899 33.0792 40.2685 34.8545L41.1135 34.6196C40.7619 33.3177 41.5194 31.9677 42.8006 31.6105ZM37.6475 28.7294L37.4132 29.5866C37.7057 29.6693 38.003 29.7102 38.2985 29.7102C38.8573 29.7102 39.4094 29.5639 39.9094 29.277C40.6739 28.8384 41.2243 28.1236 41.4594 27.2647L40.6152 27.0267C40.4427 27.657 40.0395 28.181 39.4786 28.5026C38.9177 28.8237 38.2675 28.9042 37.6475 28.7294ZM35.6224 37.0314L36.0204 36.2392C34.4064 35.4025 32.423 36.055 31.5989 37.6946L32.3787 38.099C32.9834 36.8962 34.4367 36.4171 35.6224 37.0314ZM45.6072 24.3969L46.0972 23.6599C44.5967 22.6306 42.5497 23.0314 41.5352 24.5566L42.2603 25.0548C43.0051 23.9361 44.5065 23.6412 45.6072 24.3969ZM37.7862 35.6218L38.2517 34.8683C37.7928 34.5756 37.4736 34.1192 37.3523 33.5823C37.2311 33.0454 37.3234 32.4934 37.6111 32.0268L36.8698 31.554C36.4574 32.2212 36.3256 33.0121 36.4985 33.7803C36.6715 34.5489 37.129 35.2028 37.7862 35.6218ZM29.2822 40.5712L28.9394 39.7528C28.4437 39.9667 27.8968 39.9721 27.3986 39.7688C26.8994 39.5651 26.5088 39.1759 26.2978 38.6732L25.4921 39.022C25.7942 39.743 26.3556 40.3012 27.071 40.5944C27.42 40.7367 27.7852 40.8079 28.1499 40.8079C28.5344 40.8074 28.9184 40.7287 29.2822 40.5712ZM45.6256 31.098C45.799 31.9619 45.2486 32.8084 44.3979 32.9854L44.573 33.8568C45.8962 33.5819 46.7531 32.2644 46.483 30.9201L45.6256 31.098ZM44.9233 26.4653L44.0485 26.5098C44.0813 27.1739 44.3668 27.7851 44.8519 28.2312C45.3064 28.6485 45.8844 28.8744 46.4926 28.8744C46.5346 28.8744 46.5762 28.8735 46.6182 28.8713L46.5745 27.983C46.148 28.0004 45.7513 27.858 45.4391 27.572C45.1278 27.2842 44.9443 26.8919 44.9233 26.4653ZM29.9793 42.3403C29.407 42.3625 28.8557 42.1663 28.4306 41.7736L27.8412 42.4314C28.403 42.951 29.1202 43.2321 29.8751 43.2321C29.9232 43.2321 29.9723 43.2312 30.0204 43.2285C30.8278 43.1898 31.5722 42.8344 32.116 42.2268L31.4684 41.6281C31.0822 42.06 30.5533 42.3127 29.9793 42.3403ZM31.9956 41.0868L32.6432 41.6855C33.0303 41.254 33.5588 41.0009 34.1328 40.9733C34.7037 40.9413 35.2563 41.1468 35.681 41.5396L36.2704 40.8817C35.6732 40.3293 34.9043 40.0464 34.0912 40.0846C33.2838 40.1233 32.5394 40.4792 31.9956 41.0868ZM49.1863 42.9795C49.1863 46.2991 46.5276 49 43.2599 49C41.0303 49 39.0858 47.7416 38.0744 45.8881C35.4472 47.0201 32.789 47.6051 30.2534 47.6055C29.4412 47.6055 28.6412 47.5464 27.8592 47.4267C24.7106 46.9459 22.2012 45.0243 21.1473 42.286C20.8268 41.4524 20.0798 40.9142 19.2444 40.9142C18.0967 40.9142 17.1921 41.8332 17.1921 42.9626V47.5864H16.3164V42.9626C16.3164 41.3425 17.6138 40.0246 19.2085 40.0246C20.4423 40.0246 21.5098 40.7847 21.963 41.9613C22.9013 44.3993 25.1541 46.1132 27.9892 46.5464C31.0476 47.0139 34.3986 46.4984 37.7114 45.075C37.5489 44.6333 37.4338 44.1689 37.3777 43.6849C35.1022 44.6626 32.7518 45.1826 30.541 45.1826C29.8628 45.1826 29.1911 45.1328 28.5444 45.0349C26.2855 44.6889 24.3038 43.1418 23.4951 41.0934C23.1163 40.1353 22.9749 38.6403 23.0743 36.6507L23.101 36.1204L23.6107 36.2401C24.7824 36.515 25.7452 36.64 26.4615 36.6017C31.1444 36.3842 34.952 32.4925 34.952 27.9256C34.952 26.4311 34.8215 25.9004 34.7072 25.6055L34.5882 25.295L34.8478 25.0913C36.4687 23.8191 38.2828 22.6226 39.366 21.9073C39.6445 21.7236 39.8678 21.5764 40.018 21.4736C41.0785 20.7495 42.1644 20.3429 43.3378 20.2308C43.5331 20.2121 43.7306 20.2024 43.9232 20.2024C46.4773 20.2024 49.4604 21.9291 49.4604 26.7967C49.4604 30.5767 48.1175 34.2424 45.5744 37.4384C45.9974 37.6212 46.391 37.8579 46.757 38.1305C49.4709 34.657 50.9071 30.6661 50.9071 26.5587C50.9071 23.8685 50.069 21.672 48.4831 20.2068C47.0824 18.9124 45.2035 18.3061 43.1916 18.5001C41.7751 18.6366 40.4734 19.1188 39.2119 19.9746C38.3257 20.5756 37.2262 20.701 36.273 20.3113C35.0637 19.8171 34.2856 18.6504 34.2821 17.3355L34.2685 12.0022L35.1442 12L35.1578 17.3324C35.1604 18.2834 35.7231 19.1272 36.5913 19.4822C37.2845 19.766 38.0801 19.6726 38.725 19.2344C40.11 18.295 41.5439 17.7648 43.1084 17.614C45.3686 17.3974 47.4865 18.0828 49.072 19.5485C50.8453 21.1872 51.7828 23.611 51.7828 26.5587C51.7828 30.8783 50.2752 35.0676 47.4261 38.7035C48.512 39.795 49.1863 41.3083 49.1863 42.9795ZM37.3462 42.7286C37.4771 39.5255 40.0758 36.9585 43.2603 36.9585C43.7503 36.9585 44.224 37.0261 44.6799 37.1404C47.2334 34.0427 48.5847 30.4722 48.5847 26.7954C48.5847 22.5848 46.074 21.0906 43.9232 21.0906C43.7573 21.0906 43.587 21.0995 43.4197 21.1156C42.3956 21.2134 41.4428 21.5719 40.5071 22.2107C40.3543 22.3152 40.127 22.4656 39.8433 22.6524C38.8257 23.3241 37.1566 24.425 35.6276 25.6037C35.7375 26.0183 35.8277 26.6748 35.8277 27.9248C35.8277 32.96 31.6453 37.2512 26.5049 37.4896C25.828 37.5247 24.9601 37.4357 23.9285 37.2209C23.8834 38.7991 24.0131 40.0166 24.3077 40.7621C25.0035 42.5231 26.7177 43.8553 28.6749 44.1551C31.3633 44.563 34.4257 44.0434 37.3462 42.7286ZM48.3106 42.9795C48.3106 40.1504 46.0447 37.8485 43.2599 37.8485C40.4751 37.8485 38.2092 40.15 38.2092 42.9795C38.2092 45.8089 40.4751 48.1104 43.2599 48.1104C46.0447 48.1104 48.3106 45.8085 48.3106 42.9795ZM42.752 44.6391L41.0141 42.874L40.395 43.503L42.8785 46.026L46.1944 41.1041L45.4719 40.6015L42.752 44.6391Z" fill="#3A643C"/>
</svg>
