<svg width="11" height="18" viewBox="0 0 11 18" fill="none" xmlns="http://www.w3.org/2000/svg">
<path d="M0.866002 1.85117C0.756391 1.75685 0.667367 1.64079 0.604518 1.51026C0.541668 1.37974 0.50635 1.23757 0.50078 1.09268C0.49521 0.947785 0.519509 0.803304 0.572151 0.668296C0.624792 0.533288 0.704641 0.410672 0.806684 0.308143C0.908727 0.205613 1.03076 0.125384 1.16513 0.0724918C1.2995 0.0195991 1.44329 -0.00481494 1.5875 0.000781234C1.7317 0.00637741 1.8732 0.0418655 2.0031 0.105014C2.13301 0.168163 2.24852 0.25761 2.34239 0.367744L10.1955 8.25829C10.3905 8.45541 10.5 8.72206 10.5 9C10.5 9.27794 10.3905 9.54459 10.1955 9.74171L2.34239 17.6323C2.24852 17.7424 2.13301 17.8318 2.0031 17.895C1.8732 17.9581 1.7317 17.9936 1.5875 17.9992C1.44329 18.0048 1.29949 17.9804 1.16513 17.9275C1.03076 17.8746 0.908726 17.7944 0.806683 17.6919C0.704639 17.5893 0.62479 17.4667 0.572149 17.3317C0.519507 17.1967 0.495209 17.0522 0.500778 16.9073C0.506349 16.7624 0.541667 16.6203 0.604517 16.4897C0.667366 16.3592 0.75639 16.2431 0.866 16.1488L7.9757 9L0.866002 1.85117Z" fill="#3A643B"/>
</svg>
