<svg width="196" height="140" viewBox="0 0 196 140" fill="none" xmlns="http://www.w3.org/2000/svg">
<g clip-path="url(#clip0_25_6138)">
<rect x="0.5" width="195" height="140" rx="16" fill="#3A643B"/>
<path d="M18.522 31V21.2H24.71V22.348H19.922V25.484H24.29V26.604H19.922V29.852H24.71V31H18.522ZM26.45 31V23.944H27.71L27.794 25.148C28.018 24.728 28.3354 24.3967 28.746 24.154C29.1567 23.902 29.628 23.776 30.16 23.776C30.72 23.776 31.2007 23.888 31.602 24.112C32.0034 24.336 32.316 24.6767 32.54 25.134C32.764 25.582 32.876 26.1467 32.876 26.828V31H31.476V26.968C31.476 26.3147 31.3314 25.82 31.042 25.484C30.7527 25.148 30.3327 24.98 29.782 24.98C29.418 24.98 29.0914 25.0687 28.802 25.246C28.5127 25.414 28.2794 25.666 28.102 26.002C27.934 26.338 27.85 26.7487 27.85 27.234V31H26.45ZM37.5368 34.248C36.8928 34.248 36.3235 34.164 35.8288 33.996C35.3342 33.8373 34.9515 33.59 34.6808 33.254C34.4102 32.918 34.2748 32.5073 34.2748 32.022C34.2748 31.77 34.3308 31.5133 34.4428 31.252C34.5548 31 34.7368 30.7573 34.9888 30.524C35.2408 30.2907 35.5815 30.0807 36.0108 29.894L36.7948 30.524C36.3188 30.7013 35.9968 30.9113 35.8288 31.154C35.6702 31.406 35.5908 31.6487 35.5908 31.882C35.5908 32.162 35.6748 32.3953 35.8428 32.582C36.0108 32.7687 36.2395 32.9087 36.5288 33.002C36.8275 33.0953 37.1635 33.142 37.5368 33.142C37.9008 33.142 38.2182 33.0907 38.4888 32.988C38.7595 32.8853 38.9695 32.7407 39.1188 32.554C39.2682 32.3673 39.3428 32.148 39.3428 31.896C39.3428 31.5973 39.2308 31.3453 39.0068 31.14C38.7828 30.944 38.3535 30.8273 37.7188 30.79C37.1868 30.7527 36.7342 30.7013 36.3608 30.636C35.9968 30.5707 35.6842 30.4913 35.4228 30.398C35.1708 30.3047 34.9562 30.202 34.7788 30.09C34.6108 29.978 34.4662 29.8613 34.3448 29.74V29.418L35.7448 27.976L36.8788 28.368L35.3528 29.782L35.6468 29.152C35.7495 29.2173 35.8475 29.2827 35.9408 29.348C36.0342 29.404 36.1602 29.4553 36.3188 29.502C36.4775 29.5487 36.6922 29.5907 36.9628 29.628C37.2335 29.6653 37.5882 29.7027 38.0268 29.74C38.6615 29.7867 39.1702 29.8987 39.5528 30.076C39.9448 30.2533 40.2295 30.4913 40.4068 30.79C40.5842 31.0887 40.6728 31.4433 40.6728 31.854C40.6728 32.2553 40.5608 32.638 40.3368 33.002C40.1222 33.366 39.7815 33.6647 39.3148 33.898C38.8575 34.1313 38.2648 34.248 37.5368 34.248ZM37.5368 28.83C36.9395 28.83 36.4308 28.718 36.0108 28.494C35.6002 28.27 35.2828 27.9667 35.0588 27.584C34.8442 27.2013 34.7368 26.7767 34.7368 26.31C34.7368 25.834 34.8442 25.4093 35.0588 25.036C35.2828 24.6533 35.6048 24.35 36.0248 24.126C36.4448 23.8927 36.9488 23.776 37.5368 23.776C38.1248 23.776 38.6242 23.8927 39.0348 24.126C39.4548 24.35 39.7722 24.6533 39.9868 25.036C40.2108 25.4093 40.3228 25.834 40.3228 26.31C40.3228 26.7767 40.2108 27.2013 39.9868 27.584C39.7722 27.9667 39.4548 28.27 39.0348 28.494C38.6242 28.718 38.1248 28.83 37.5368 28.83ZM37.5368 27.71C37.9942 27.71 38.3582 27.5933 38.6288 27.36C38.8995 27.1173 39.0348 26.7673 39.0348 26.31C39.0348 25.8527 38.8995 25.5073 38.6288 25.274C38.3582 25.0313 37.9942 24.91 37.5368 24.91C37.0795 24.91 36.7108 25.0313 36.4308 25.274C36.1508 25.5073 36.0108 25.8527 36.0108 26.31C36.0108 26.7673 36.1508 27.1173 36.4308 27.36C36.7108 27.5933 37.0795 27.71 37.5368 27.71ZM38.6848 25.05L38.3488 23.944H41.2468V24.91L38.6848 25.05ZM44.9892 31.168C44.4106 31.168 43.9299 31.07 43.5472 30.874C43.1646 30.678 42.8799 30.4167 42.6932 30.09C42.5066 29.754 42.4132 29.3947 42.4132 29.012C42.4132 28.5453 42.5346 28.1487 42.7772 27.822C43.0199 27.486 43.3652 27.2293 43.8132 27.052C44.2612 26.8747 44.7979 26.786 45.4232 26.786H47.2572C47.2572 26.3753 47.1966 26.0347 47.0752 25.764C46.9539 25.4933 46.7719 25.2927 46.5292 25.162C46.2959 25.022 45.9972 24.952 45.6332 24.952C45.2132 24.952 44.8539 25.0547 44.5552 25.26C44.2566 25.456 44.0699 25.75 43.9952 26.142H42.5952C42.6512 25.6473 42.8192 25.2273 43.0992 24.882C43.3886 24.5273 43.7572 24.2567 44.2052 24.07C44.6532 23.874 45.1292 23.776 45.6332 23.776C46.2959 23.776 46.8512 23.8927 47.2992 24.126C47.7472 24.3593 48.0832 24.6907 48.3072 25.12C48.5406 25.54 48.6572 26.044 48.6572 26.632V31H47.4392L47.3272 29.81C47.2246 29.9967 47.1032 30.174 46.9632 30.342C46.8232 30.51 46.6552 30.6547 46.4592 30.776C46.2726 30.8973 46.0532 30.9907 45.8012 31.056C45.5586 31.1307 45.2879 31.168 44.9892 31.168ZM45.2552 30.034C45.5539 30.034 45.8246 29.9733 46.0672 29.852C46.3099 29.7307 46.5152 29.5673 46.6832 29.362C46.8606 29.1473 46.9912 28.9093 47.0752 28.648C47.1686 28.3773 47.2199 28.102 47.2292 27.822V27.78H45.5632C45.1619 27.78 44.8352 27.8313 44.5832 27.934C44.3406 28.0273 44.1632 28.158 44.0512 28.326C43.9392 28.494 43.8832 28.69 43.8832 28.914C43.8832 29.1473 43.9346 29.348 44.0372 29.516C44.1492 29.6747 44.3079 29.8007 44.5132 29.894C44.7186 29.9873 44.9659 30.034 45.2552 30.034ZM53.3142 34.248C52.6702 34.248 52.1009 34.164 51.6062 33.996C51.1115 33.8373 50.7289 33.59 50.4582 33.254C50.1875 32.918 50.0522 32.5073 50.0522 32.022C50.0522 31.77 50.1082 31.5133 50.2202 31.252C50.3322 31 50.5142 30.7573 50.7662 30.524C51.0182 30.2907 51.3589 30.0807 51.7882 29.894L52.5722 30.524C52.0962 30.7013 51.7742 30.9113 51.6062 31.154C51.4475 31.406 51.3682 31.6487 51.3682 31.882C51.3682 32.162 51.4522 32.3953 51.6202 32.582C51.7882 32.7687 52.0169 32.9087 52.3062 33.002C52.6049 33.0953 52.9409 33.142 53.3142 33.142C53.6782 33.142 53.9955 33.0907 54.2662 32.988C54.5369 32.8853 54.7469 32.7407 54.8962 32.554C55.0455 32.3673 55.1202 32.148 55.1202 31.896C55.1202 31.5973 55.0082 31.3453 54.7842 31.14C54.5602 30.944 54.1309 30.8273 53.4962 30.79C52.9642 30.7527 52.5115 30.7013 52.1382 30.636C51.7742 30.5707 51.4615 30.4913 51.2002 30.398C50.9482 30.3047 50.7335 30.202 50.5562 30.09C50.3882 29.978 50.2435 29.8613 50.1222 29.74V29.418L51.5222 27.976L52.6562 28.368L51.1302 29.782L51.4242 29.152C51.5269 29.2173 51.6249 29.2827 51.7182 29.348C51.8115 29.404 51.9375 29.4553 52.0962 29.502C52.2549 29.5487 52.4695 29.5907 52.7402 29.628C53.0109 29.6653 53.3655 29.7027 53.8042 29.74C54.4389 29.7867 54.9475 29.8987 55.3302 30.076C55.7222 30.2533 56.0069 30.4913 56.1842 30.79C56.3615 31.0887 56.4502 31.4433 56.4502 31.854C56.4502 32.2553 56.3382 32.638 56.1142 33.002C55.8995 33.366 55.5589 33.6647 55.0922 33.898C54.6349 34.1313 54.0422 34.248 53.3142 34.248ZM53.3142 28.83C52.7169 28.83 52.2082 28.718 51.7882 28.494C51.3775 28.27 51.0602 27.9667 50.8362 27.584C50.6215 27.2013 50.5142 26.7767 50.5142 26.31C50.5142 25.834 50.6215 25.4093 50.8362 25.036C51.0602 24.6533 51.3822 24.35 51.8022 24.126C52.2222 23.8927 52.7262 23.776 53.3142 23.776C53.9022 23.776 54.4015 23.8927 54.8122 24.126C55.2322 24.35 55.5495 24.6533 55.7642 25.036C55.9882 25.4093 56.1002 25.834 56.1002 26.31C56.1002 26.7767 55.9882 27.2013 55.7642 27.584C55.5495 27.9667 55.2322 28.27 54.8122 28.494C54.4015 28.718 53.9022 28.83 53.3142 28.83ZM53.3142 27.71C53.7715 27.71 54.1355 27.5933 54.4062 27.36C54.6769 27.1173 54.8122 26.7673 54.8122 26.31C54.8122 25.8527 54.6769 25.5073 54.4062 25.274C54.1355 25.0313 53.7715 24.91 53.3142 24.91C52.8569 24.91 52.4882 25.0313 52.2082 25.274C51.9282 25.5073 51.7882 25.8527 51.7882 26.31C51.7882 26.7673 51.9282 27.1173 52.2082 27.36C52.4882 27.5933 52.8569 27.71 53.3142 27.71ZM54.4622 25.05L54.1262 23.944H57.0242V24.91L54.4622 25.05ZM61.3471 31.168C60.6751 31.168 60.0778 31.014 59.5551 30.706C59.0325 30.398 58.6218 29.9687 58.3231 29.418C58.0338 28.8673 57.8891 28.228 57.8891 27.5C57.8891 26.7533 58.0338 26.1047 58.3231 25.554C58.6218 24.994 59.0325 24.56 59.5551 24.252C60.0778 23.9347 60.6845 23.776 61.3751 23.776C62.0658 23.776 62.6585 23.93 63.1531 24.238C63.6478 24.546 64.0305 24.9567 64.3011 25.47C64.5718 25.974 64.7071 26.534 64.7071 27.15C64.7071 27.2433 64.7025 27.346 64.6931 27.458C64.6931 27.5607 64.6885 27.6773 64.6791 27.808H58.9111V26.814H63.3071C63.2791 26.226 63.0831 25.7687 62.7191 25.442C62.3551 25.106 61.9025 24.938 61.3611 24.938C60.9785 24.938 60.6285 25.0267 60.3111 25.204C59.9938 25.372 59.7371 25.624 59.5411 25.96C59.3545 26.2867 59.2611 26.702 59.2611 27.206V27.598C59.2611 28.1207 59.3545 28.564 59.5411 28.928C59.7371 29.2827 59.9938 29.5533 60.3111 29.74C60.6285 29.9173 60.9738 30.006 61.3471 30.006C61.7951 30.006 62.1638 29.908 62.4531 29.712C62.7425 29.516 62.9571 29.25 63.0971 28.914H64.4971C64.3758 29.3433 64.1705 29.7307 63.8811 30.076C63.5918 30.412 63.2325 30.678 62.8031 30.874C62.3831 31.07 61.8978 31.168 61.3471 31.168ZM66.2625 31V23.944H67.5225L67.6205 24.938C67.8445 24.574 68.1432 24.2893 68.5165 24.084C68.8899 23.8787 69.3099 23.776 69.7765 23.776C70.1312 23.776 70.4532 23.8273 70.7425 23.93C71.0319 24.0233 71.2885 24.168 71.5125 24.364C71.7365 24.56 71.9185 24.8027 72.0585 25.092C72.3105 24.6813 72.6465 24.3593 73.0665 24.126C73.4959 23.8927 73.9485 23.776 74.4245 23.776C74.9939 23.776 75.4839 23.8927 75.8945 24.126C76.3052 24.35 76.6179 24.6907 76.8325 25.148C77.0472 25.596 77.1545 26.156 77.1545 26.828V31H75.7685V26.968C75.7685 26.3147 75.6332 25.82 75.3625 25.484C75.1012 25.148 74.7139 24.98 74.2005 24.98C73.8552 24.98 73.5472 25.0687 73.2765 25.246C73.0059 25.4233 72.7912 25.68 72.6325 26.016C72.4832 26.352 72.4085 26.7627 72.4085 27.248V31H71.0085V26.968C71.0085 26.3147 70.8732 25.82 70.6025 25.484C70.3412 25.148 69.9539 24.98 69.4405 24.98C69.1139 24.98 68.8152 25.0687 68.5445 25.246C68.2739 25.4233 68.0592 25.68 67.9005 26.016C67.7419 26.352 67.6625 26.7627 67.6625 27.248V31H66.2625ZM82.1557 31.168C81.4837 31.168 80.8864 31.014 80.3637 30.706C79.8411 30.398 79.4304 29.9687 79.1317 29.418C78.8424 28.8673 78.6977 28.228 78.6977 27.5C78.6977 26.7533 78.8424 26.1047 79.1317 25.554C79.4304 24.994 79.8411 24.56 80.3637 24.252C80.8864 23.9347 81.4931 23.776 82.1837 23.776C82.8744 23.776 83.4671 23.93 83.9617 24.238C84.4564 24.546 84.8391 24.9567 85.1097 25.47C85.3804 25.974 85.5157 26.534 85.5157 27.15C85.5157 27.2433 85.5111 27.346 85.5017 27.458C85.5017 27.5607 85.4971 27.6773 85.4877 27.808H79.7197V26.814H84.1157C84.0877 26.226 83.8917 25.7687 83.5277 25.442C83.1637 25.106 82.7111 24.938 82.1697 24.938C81.7871 24.938 81.4371 25.0267 81.1197 25.204C80.8024 25.372 80.5457 25.624 80.3497 25.96C80.1631 26.2867 80.0697 26.702 80.0697 27.206V27.598C80.0697 28.1207 80.1631 28.564 80.3497 28.928C80.5457 29.2827 80.8024 29.5533 81.1197 29.74C81.4371 29.9173 81.7824 30.006 82.1557 30.006C82.6037 30.006 82.9724 29.908 83.2617 29.712C83.5511 29.516 83.7657 29.25 83.9057 28.914H85.3057C85.1844 29.3433 84.9791 29.7307 84.6897 30.076C84.4004 30.412 84.0411 30.678 83.6117 30.874C83.1917 31.07 82.7064 31.168 82.1557 31.168ZM87.0711 31V23.944H88.3311L88.4151 25.148C88.6391 24.728 88.9565 24.3967 89.3671 24.154C89.7778 23.902 90.2491 23.776 90.7811 23.776C91.3411 23.776 91.8218 23.888 92.2231 24.112C92.6245 24.336 92.9371 24.6767 93.1611 25.134C93.3851 25.582 93.4971 26.1467 93.4971 26.828V31H92.0971V26.968C92.0971 26.3147 91.9525 25.82 91.6631 25.484C91.3738 25.148 90.9538 24.98 90.4031 24.98C90.0391 24.98 89.7125 25.0687 89.4231 25.246C89.1338 25.414 88.9005 25.666 88.7231 26.002C88.5551 26.338 88.4711 26.7487 88.4711 27.234V31H87.0711ZM98.1999 31C97.7519 31 97.3646 30.93 97.0379 30.79C96.7113 30.65 96.4593 30.4167 96.2819 30.09C96.1046 29.7633 96.0159 29.32 96.0159 28.76V25.134H94.7979V23.944H96.0159L96.1839 22.18H97.4159V23.944H99.4179V25.134H97.4159V28.774C97.4159 29.1753 97.4999 29.4507 97.6679 29.6C97.8359 29.74 98.1253 29.81 98.5359 29.81H99.3479V31H98.1999ZM106.896 31V22.348H103.998V21.2H111.208V22.348H108.296V31H106.896ZM112.654 31V23.944H114.054V31H112.654ZM113.368 22.614C113.097 22.614 112.873 22.53 112.696 22.362C112.528 22.194 112.444 21.9793 112.444 21.718C112.444 21.466 112.528 21.2607 112.696 21.102C112.873 20.934 113.097 20.85 113.368 20.85C113.629 20.85 113.848 20.934 114.026 21.102C114.203 21.2607 114.292 21.466 114.292 21.718C114.292 21.9793 114.203 22.194 114.026 22.362C113.848 22.53 113.629 22.614 113.368 22.614ZM116.056 31V23.944H117.316L117.414 24.938C117.638 24.574 117.936 24.2893 118.31 24.084C118.683 23.8787 119.103 23.776 119.57 23.776C119.924 23.776 120.246 23.8273 120.536 23.93C120.825 24.0233 121.082 24.168 121.306 24.364C121.53 24.56 121.712 24.8027 121.852 25.092C122.104 24.6813 122.44 24.3593 122.86 24.126C123.289 23.8927 123.742 23.776 124.218 23.776C124.787 23.776 125.277 23.8927 125.688 24.126C126.098 24.35 126.411 24.6907 126.626 25.148C126.84 25.596 126.948 26.156 126.948 26.828V31H125.562V26.968C125.562 26.3147 125.426 25.82 125.156 25.484C124.894 25.148 124.507 24.98 123.994 24.98C123.648 24.98 123.34 25.0687 123.07 25.246C122.799 25.4233 122.584 25.68 122.426 26.016C122.276 26.352 122.202 26.7627 122.202 27.248V31H120.802V26.968C120.802 26.3147 120.666 25.82 120.396 25.484C120.134 25.148 119.747 24.98 119.234 24.98C118.907 24.98 118.608 25.0687 118.338 25.246C118.067 25.4233 117.852 25.68 117.694 26.016C117.535 26.352 117.456 26.7627 117.456 27.248V31H116.056ZM131.949 31.168C131.277 31.168 130.679 31.014 130.157 30.706C129.634 30.398 129.223 29.9687 128.925 29.418C128.635 28.8673 128.491 28.228 128.491 27.5C128.491 26.7533 128.635 26.1047 128.925 25.554C129.223 24.994 129.634 24.56 130.157 24.252C130.679 23.9347 131.286 23.776 131.977 23.776C132.667 23.776 133.26 23.93 133.755 24.238C134.249 24.546 134.632 24.9567 134.903 25.47C135.173 25.974 135.309 26.534 135.309 27.15C135.309 27.2433 135.304 27.346 135.295 27.458C135.295 27.5607 135.29 27.6773 135.281 27.808H129.513V26.814H133.909C133.881 26.226 133.685 25.7687 133.321 25.442C132.957 25.106 132.504 24.938 131.963 24.938C131.58 24.938 131.23 25.0267 130.913 25.204C130.595 25.372 130.339 25.624 130.143 25.96C129.956 26.2867 129.863 26.702 129.863 27.206V27.598C129.863 28.1207 129.956 28.564 130.143 28.928C130.339 29.2827 130.595 29.5533 130.913 29.74C131.23 29.9173 131.575 30.006 131.949 30.006C132.397 30.006 132.765 29.908 133.055 29.712C133.344 29.516 133.559 29.25 133.699 28.914H135.099C134.977 29.3433 134.772 29.7307 134.483 30.076C134.193 30.412 133.834 30.678 133.405 30.874C132.985 31.07 132.499 31.168 131.949 31.168Z" fill="white"/>
<path d="M23.476 65.216C22.528 65.216 21.724 65.042 21.064 64.694C20.416 64.346 19.894 63.878 19.498 63.29C19.114 62.702 18.832 62.048 18.652 61.328C18.484 60.596 18.4 59.858 18.4 59.114C18.4 57.698 18.598 56.474 18.994 55.442C19.39 54.41 19.96 53.612 20.704 53.048C21.448 52.472 22.348 52.184 23.404 52.184C24.292 52.184 25.042 52.358 25.654 52.706C26.266 53.042 26.74 53.486 27.076 54.038C27.412 54.59 27.61 55.184 27.67 55.82H25.402C25.306 55.292 25.084 54.89 24.736 54.614C24.388 54.326 23.938 54.182 23.386 54.182C22.87 54.182 22.42 54.338 22.036 54.65C21.652 54.962 21.352 55.43 21.136 56.054C20.932 56.678 20.812 57.464 20.776 58.412C20.776 58.424 20.776 58.442 20.776 58.466C20.776 58.49 20.776 58.508 20.776 58.52C20.968 58.196 21.22 57.908 21.532 57.656C21.844 57.404 22.204 57.206 22.612 57.062C23.02 56.918 23.452 56.846 23.908 56.846C24.604 56.846 25.252 57.014 25.852 57.35C26.452 57.686 26.938 58.16 27.31 58.772C27.682 59.384 27.868 60.11 27.868 60.95C27.868 61.706 27.682 62.414 27.31 63.074C26.95 63.722 26.44 64.244 25.78 64.64C25.12 65.024 24.352 65.216 23.476 65.216ZM23.332 63.128C23.764 63.128 24.142 63.038 24.466 62.858C24.802 62.678 25.066 62.432 25.258 62.12C25.45 61.796 25.546 61.43 25.546 61.022C25.546 60.59 25.45 60.218 25.258 59.906C25.066 59.594 24.802 59.348 24.466 59.168C24.13 58.988 23.746 58.898 23.314 58.898C22.894 58.898 22.516 58.988 22.18 59.168C21.844 59.348 21.574 59.6 21.37 59.924C21.178 60.236 21.082 60.596 21.082 61.004C21.082 61.424 21.178 61.796 21.37 62.12C21.574 62.432 21.844 62.678 22.18 62.858C22.528 63.038 22.912 63.128 23.332 63.128ZM30.0962 65V55.928H32.2382L32.4362 57.134C32.7242 56.702 33.1022 56.36 33.5702 56.108C34.0502 55.844 34.5962 55.712 35.2082 55.712C35.6642 55.712 36.0722 55.772 36.4322 55.892C36.7922 56.012 37.1102 56.186 37.3862 56.414C37.6742 56.642 37.9082 56.93 38.0882 57.278C38.4242 56.786 38.8622 56.402 39.4022 56.126C39.9422 55.85 40.5302 55.712 41.1662 55.712C41.9582 55.712 42.6182 55.874 43.1462 56.198C43.6742 56.51 44.0702 56.966 44.3342 57.566C44.6102 58.166 44.7482 58.904 44.7482 59.78V65H42.3362V59.996C42.3362 59.276 42.1922 58.724 41.9042 58.34C41.6282 57.956 41.1962 57.764 40.6082 57.764C40.2242 57.764 39.8822 57.86 39.5822 58.052C39.2822 58.244 39.0482 58.52 38.8802 58.88C38.7242 59.24 38.6462 59.672 38.6462 60.176V65H36.2162V59.996C36.2162 59.276 36.0722 58.724 35.7842 58.34C35.4962 57.956 35.0522 57.764 34.4522 57.764C34.0802 57.764 33.7442 57.86 33.4442 58.052C33.1562 58.244 32.9282 58.52 32.7602 58.88C32.6042 59.24 32.5262 59.672 32.5262 60.176V65H30.0962ZM55.4898 65.216C54.6738 65.216 53.9238 65.066 53.2398 64.766C52.5558 64.466 52.0098 64.01 51.6018 63.398C51.1938 62.786 50.9778 62.012 50.9538 61.076H53.3298C53.3418 61.472 53.4318 61.832 53.5998 62.156C53.7678 62.468 54.0138 62.72 54.3378 62.912C54.6618 63.092 55.0458 63.182 55.4898 63.182C55.9098 63.182 56.2698 63.098 56.5698 62.93C56.8698 62.762 57.0978 62.54 57.2538 62.264C57.4098 61.988 57.4878 61.67 57.4878 61.31C57.4878 60.89 57.3798 60.542 57.1638 60.266C56.9598 59.978 56.6718 59.762 56.2998 59.618C55.9398 59.474 55.5258 59.402 55.0578 59.402H54.1218V57.404H55.0578C55.6458 57.404 56.1378 57.266 56.5338 56.99C56.9418 56.714 57.1458 56.3 57.1458 55.748C57.1458 55.292 56.9958 54.926 56.6958 54.65C56.4078 54.374 55.9998 54.236 55.4718 54.236C54.8958 54.236 54.4458 54.404 54.1218 54.74C53.7978 55.076 53.6178 55.49 53.5818 55.982H51.2058C51.2418 55.19 51.4398 54.512 51.7998 53.948C52.1718 53.372 52.6698 52.934 53.2938 52.634C53.9178 52.334 54.6438 52.184 55.4718 52.184C56.3478 52.184 57.0858 52.34 57.6858 52.652C58.2978 52.952 58.7598 53.36 59.0718 53.876C59.3838 54.392 59.5398 54.95 59.5398 55.55C59.5398 56.042 59.4438 56.48 59.2518 56.864C59.0718 57.248 58.8258 57.566 58.5138 57.818C58.2018 58.07 57.8598 58.25 57.4878 58.358C57.9558 58.454 58.3638 58.64 58.7118 58.916C59.0718 59.18 59.3478 59.522 59.5398 59.942C59.7438 60.362 59.8458 60.848 59.8458 61.4C59.8458 62.084 59.6778 62.72 59.3418 63.308C59.0178 63.884 58.5258 64.346 57.8658 64.694C57.2178 65.042 56.4258 65.216 55.4898 65.216ZM66.3355 65.216C65.5195 65.216 64.7695 65.066 64.0855 64.766C63.4015 64.466 62.8555 64.01 62.4475 63.398C62.0395 62.786 61.8235 62.012 61.7995 61.076H64.1755C64.1875 61.472 64.2775 61.832 64.4455 62.156C64.6135 62.468 64.8595 62.72 65.1835 62.912C65.5075 63.092 65.8915 63.182 66.3355 63.182C66.7555 63.182 67.1155 63.098 67.4155 62.93C67.7155 62.762 67.9435 62.54 68.0995 62.264C68.2555 61.988 68.3335 61.67 68.3335 61.31C68.3335 60.89 68.2255 60.542 68.0095 60.266C67.8055 59.978 67.5175 59.762 67.1455 59.618C66.7855 59.474 66.3715 59.402 65.9035 59.402H64.9675V57.404H65.9035C66.4915 57.404 66.9835 57.266 67.3795 56.99C67.7875 56.714 67.9915 56.3 67.9915 55.748C67.9915 55.292 67.8415 54.926 67.5415 54.65C67.2535 54.374 66.8455 54.236 66.3175 54.236C65.7415 54.236 65.2915 54.404 64.9675 54.74C64.6435 55.076 64.4635 55.49 64.4275 55.982H62.0515C62.0875 55.19 62.2855 54.512 62.6455 53.948C63.0175 53.372 63.5155 52.934 64.1395 52.634C64.7635 52.334 65.4895 52.184 66.3175 52.184C67.1935 52.184 67.9315 52.34 68.5315 52.652C69.1435 52.952 69.6055 53.36 69.9175 53.876C70.2295 54.392 70.3855 54.95 70.3855 55.55C70.3855 56.042 70.2895 56.48 70.0975 56.864C69.9175 57.248 69.6715 57.566 69.3595 57.818C69.0475 58.07 68.7055 58.25 68.3335 58.358C68.8015 58.454 69.2095 58.64 69.5575 58.916C69.9175 59.18 70.1935 59.522 70.3855 59.942C70.5895 60.362 70.6915 60.848 70.6915 61.4C70.6915 62.084 70.5235 62.72 70.1875 63.308C69.8635 63.884 69.3715 64.346 68.7115 64.694C68.0635 65.042 67.2715 65.216 66.3355 65.216ZM76.6773 65.216C75.8493 65.216 75.1293 65.084 74.5173 64.82C73.9053 64.556 73.4253 64.19 73.0773 63.722C72.7293 63.254 72.5313 62.726 72.4833 62.138H74.8953C74.9553 62.366 75.0573 62.576 75.2013 62.768C75.3453 62.948 75.5373 63.092 75.7773 63.2C76.0173 63.308 76.3053 63.362 76.6413 63.362C76.9653 63.362 77.2293 63.32 77.4333 63.236C77.6373 63.14 77.7873 63.014 77.8833 62.858C77.9913 62.702 78.0453 62.54 78.0453 62.372C78.0453 62.12 77.9733 61.928 77.8293 61.796C77.6853 61.652 77.4753 61.538 77.1993 61.454C76.9233 61.37 76.5873 61.286 76.1913 61.202C75.7593 61.118 75.3333 61.016 74.9133 60.896C74.5053 60.764 74.1393 60.602 73.8153 60.41C73.4913 60.218 73.2333 59.972 73.0413 59.672C72.8493 59.372 72.7533 59 72.7533 58.556C72.7533 58.016 72.8973 57.536 73.1853 57.116C73.4733 56.684 73.8933 56.342 74.4453 56.09C74.9973 55.838 75.6633 55.712 76.4433 55.712C77.5353 55.712 78.3993 55.958 79.0353 56.45C79.6713 56.942 80.0493 57.62 80.1693 58.484H77.8833C77.8113 58.208 77.6493 57.992 77.3973 57.836C77.1573 57.668 76.8333 57.584 76.4253 57.584C75.9933 57.584 75.6633 57.662 75.4353 57.818C75.2073 57.974 75.0933 58.178 75.0933 58.43C75.0933 58.598 75.1653 58.748 75.3093 58.88C75.4653 59.012 75.6813 59.126 75.9573 59.222C76.2333 59.306 76.5693 59.39 76.9653 59.474C77.6613 59.618 78.2733 59.786 78.8013 59.978C79.3293 60.158 79.7433 60.422 80.0433 60.77C80.3433 61.106 80.4933 61.598 80.4933 62.246C80.4933 62.822 80.3373 63.338 80.0253 63.794C79.7133 64.238 79.2693 64.586 78.6933 64.838C78.1293 65.09 77.4573 65.216 76.6773 65.216Z" fill="white"/>
<path d="M-18.5 114L5.51308 103.468C8.34362 102.226 11.5892 102.364 14.3048 103.84L27.4457 110.981C30.8381 112.825 34.9888 112.551 38.1094 110.277L64.0561 91.3734C66.5451 89.56 69.7308 88.9945 72.6919 89.8405L111.19 100.84C112.708 101.274 114.308 101.342 115.858 101.039L159.5 92.5" stroke="white"/>
<path d="M5.51308 103.468L-12.5166 111.376C-16.152 112.97 -18.5 116.564 -18.5 120.534V145C-18.5 150.523 -14.0229 155 -8.5 155H149.532C154.843 155 159.221 150.867 159.446 145.561C160.197 127.799 161.288 91.2423 157.5 92C153.606 92.7789 149.408 94.1645 147.742 94.7391C147.246 94.91 146.742 95.0501 146.227 95.15L115.85 101.044C114.305 101.344 112.711 101.275 111.198 100.842L72.6919 89.8405C69.7308 88.9945 66.5451 89.56 64.0561 91.3734L38.1094 110.277C34.9888 112.551 30.8381 112.825 27.4457 110.981L14.3048 103.84C11.5892 102.364 8.34362 102.226 5.51308 103.468Z" fill="url(#paint0_linear_25_6138)" fill-opacity="0.4"/>
<circle cx="158.5" cy="93" r="5" fill="#FFF7E2"/>
<g filter="url(#filter0_d_25_6138)">
<circle cx="158.5" cy="93" r="3" fill="#FFF7E2"/>
</g>
</g>
<defs>
<filter id="filter0_d_25_6138" x="151.5" y="86" width="14" height="14" filterUnits="userSpaceOnUse" color-interpolation-filters="sRGB">
<feFlood flood-opacity="0" result="BackgroundImageFix"/>
<feColorMatrix in="SourceAlpha" type="matrix" values="0 0 0 0 0 0 0 0 0 0 0 0 0 0 0 0 0 0 127 0" result="hardAlpha"/>
<feOffset/>
<feGaussianBlur stdDeviation="2"/>
<feComposite in2="hardAlpha" operator="out"/>
<feColorMatrix type="matrix" values="0 0 0 0 0 0 0 0 0 0 0 0 0 0 0 0 0 0 0.25 0"/>
<feBlend mode="normal" in2="BackgroundImageFix" result="effect1_dropShadow_25_6138"/>
<feBlend mode="normal" in="SourceGraphic" in2="effect1_dropShadow_25_6138" result="shape"/>
</filter>
<linearGradient id="paint0_linear_25_6138" x1="70.5" y1="88.5" x2="70.5" y2="155" gradientUnits="userSpaceOnUse">
<stop stop-color="#FFF7E2"/>
<stop offset="1" stop-color="#999488"/>
</linearGradient>
<clipPath id="clip0_25_6138">
<rect x="0.5" width="195" height="140" rx="16" fill="white"/>
</clipPath>
</defs>
</svg>
