<svg width="66" height="64" viewBox="0 0 66 64" fill="none" xmlns="http://www.w3.org/2000/svg">
<ellipse cx="33" cy="32" rx="32.5" ry="32" fill="#E0E8E2"/>
<path d="M47.1409 25.262C46.6098 35.3916 40.6652 23.4546 33.3321 23.4546C31.492 24.1937 20.6231 35.9205 19.8076 25.26C19.8076 18.7823 25.999 13 33.3321 13C40.6652 13 47.1409 18.7843 47.1409 25.262Z" fill="#FDF8E5"/>
<path d="M44.2693 51.3276C42.0014 50.8986 40.353 49.7559 39.3611 47.9366C37.9314 45.3089 38.3645 42.2273 38.5555 41.7777C40.2598 40.6226 41.5264 39.1128 42.4671 37.079C43.8502 37.0501 45.2192 36.1055 46.1459 34.542C46.9189 33.2343 47.3287 31.4316 46.4952 30.3631C46.3275 30.1445 46.0714 29.9176 45.6896 29.7567C46.6954 28.0654 46.9003 26.6463 46.9003 24.8229C46.9003 18.3051 40.8279 13 33.3679 13C30.327 13 27.5143 13.8828 25.2512 15.3679C25.2419 15.372 25.2325 15.3761 25.2232 15.3803C25.1953 15.3968 25.172 15.4174 25.1487 15.438C21.9169 17.5996 19.8307 21.003 19.8307 24.8229C19.8307 26.8154 19.8773 27.9045 20.8785 29.5175C20.4082 29.6783 20.1055 29.9382 19.9145 30.1857C19.081 31.2583 19.4861 33.0569 20.2638 34.3646C21.2045 35.9569 22.6061 36.9058 24.0125 36.9058C24.0777 36.9058 24.1382 36.8893 24.1894 36.8645C25.1999 39.0179 26.5411 40.6721 28.1803 41.7777C28.3665 42.2232 28.8043 45.3047 27.3746 47.9366C26.3828 49.7559 24.7296 50.8986 22.4664 51.3317C22.2615 51.3688 22.1312 51.5504 22.1731 51.7319C22.2103 51.8886 22.3686 52 22.5456 52C22.5735 52 22.5968 51.9959 22.6248 51.9917C26.7274 51.2121 28.2594 48.4523 28.8229 46.2742C29.1814 44.8963 29.214 43.3618 29.079 42.3593C30.3549 43.073 31.8451 43.4566 33.3679 43.4566C34.8906 43.4566 36.3854 43.0689 37.6567 42.3593C37.517 43.3659 37.5543 44.8963 37.9128 46.2742C38.4763 48.4523 40.0084 51.2121 44.1109 51.9917C44.1389 51.9959 44.1668 52 44.1901 52C44.3671 52 44.5254 51.8927 44.5626 51.7319C44.6045 51.5421 44.4742 51.3647 44.2693 51.3276ZM46.1366 24.8188C46.1366 26.8649 45.82 28.1314 44.9352 29.5628C44.7768 29.5463 44.6092 29.5381 44.4229 29.5422C45.2612 20.3305 38.5881 18.0905 38.5182 18.0699C38.318 18.008 38.1037 18.0988 38.0292 18.2721C37.9594 18.4453 38.0618 18.6392 38.2574 18.7052C38.3133 18.7217 42.8722 20.2604 43.622 26.2626C40.9723 20.4626 32.823 20.5121 32.7252 20.5203C32.5157 20.5244 32.348 20.6771 32.3527 20.8627C32.3573 21.0483 32.525 21.1927 32.7345 21.1927C32.7392 21.1927 32.7392 21.1927 32.7392 21.1927C33.1257 21.1845 41.6894 21.1391 43.3845 27.8797C42.5556 26.9598 41.3448 26.1389 39.729 25.3963C38.8069 24.9714 37.8337 24.6167 36.893 24.2743C35.8965 23.9113 34.8673 23.5359 33.908 23.0821C30.2944 21.3577 27.9847 18.5361 25.9497 15.7515C28.0406 14.4438 30.6018 13.6724 33.3632 13.6724C40.4088 13.6724 46.1366 18.6722 46.1366 24.8188ZM20.5944 24.8188C20.5944 21.3247 22.4478 18.2019 25.3396 16.1558C27.2675 18.796 29.4562 21.4691 32.7764 23.2677C32.036 24.1216 28.6459 27.7147 23.0858 29.1874C23.3792 26.5638 26.1127 23.9608 26.1406 23.936C26.285 23.7999 26.2756 23.5854 26.1266 23.4575C25.973 23.3296 25.7308 23.3378 25.5911 23.4699C25.4607 23.5936 22.4758 26.4276 22.3081 29.3772C22.3035 29.3772 22.2988 29.3772 22.2941 29.3813C22.066 29.3607 21.8564 29.3566 21.6655 29.3648C20.641 27.7972 20.5944 26.8195 20.5944 24.8188ZM28.7018 41.2785C26.9648 40.1193 25.5771 38.3042 24.5853 35.9033L23.9426 33.9768C23.8821 33.7994 23.6725 33.6963 23.4676 33.7499C23.2674 33.8036 23.151 33.9892 23.2115 34.1707L23.8635 36.1178C23.8774 36.155 23.8961 36.188 23.91 36.2251C22.6387 36.1673 21.5491 35.0741 20.9437 34.0511C20.152 32.7145 19.9891 31.2831 20.5479 30.5694C20.8785 30.1445 21.4606 29.9754 22.2802 30.0661C22.2895 30.0661 22.3035 30.0661 22.3128 30.0661C22.3174 30.0661 22.3221 30.0661 22.3267 30.0661C22.3314 30.0661 22.3361 30.0661 22.3407 30.0661C22.364 30.0661 22.3873 30.062 22.4106 30.0579C22.4152 30.0579 22.4152 30.0579 22.4199 30.0579H22.4245C22.4292 30.0579 22.4338 30.0579 22.4385 30.0537C22.527 30.0331 22.6155 30.0125 22.6993 29.9919C22.7505 29.9877 22.8017 29.9754 22.8483 29.9589C29.1209 28.4614 32.7578 24.4352 33.4424 23.6184C33.4843 23.639 33.5262 23.6637 33.5681 23.6844C34.56 24.1546 35.6077 24.5383 36.6183 24.9054C37.5403 25.2437 38.4996 25.5902 39.3937 26.0027C41.6848 27.0506 43.0865 28.251 43.6872 29.666C43.6872 29.6701 43.6918 29.6701 43.6918 29.6742C43.6965 29.6825 43.7011 29.6948 43.7058 29.7031C43.7105 29.7113 43.7151 29.7196 43.7244 29.7278C43.7291 29.7361 43.7384 29.7443 43.7431 29.7526C43.7431 29.7526 43.7431 29.7567 43.7477 29.7567C43.7151 29.8145 43.6965 29.8846 43.7058 29.9547C43.7291 30.1404 43.92 30.2724 44.1296 30.2476C44.9491 30.161 45.5312 30.3301 45.8619 30.7509C46.4207 31.4646 46.2577 32.9001 45.466 34.2326C44.9026 35.1855 43.92 36.1921 42.7605 36.3777C42.8676 36.1096 42.9747 35.8332 43.0725 35.5485L43.5195 33.882C43.5661 33.7004 43.4404 33.5189 43.2355 33.4777C43.0306 33.4364 42.8257 33.5478 42.7791 33.7293L42.3367 35.3753C41.4007 38.0649 40.0363 39.9419 38.0199 41.2909C38.0153 41.2909 38.0153 41.295 38.0106 41.295C36.7067 42.2521 35.0582 42.7801 33.3632 42.7801C31.6728 42.776 30.0197 42.2479 28.7018 41.2785Z" fill="#3A643C"/>
<path d="M30.1916 30.9282C28.3755 32.1658 26.1635 30.9612 26.0658 30.9117C25.8888 30.8127 25.6513 30.8581 25.5395 31.0148C25.4278 31.1716 25.479 31.382 25.656 31.481C25.7305 31.5222 26.8947 32.1617 28.3196 32.1617C29.0647 32.1617 29.8796 31.9884 30.648 31.4645C30.8156 31.3531 30.8482 31.1386 30.7178 30.9901C30.5968 30.8457 30.3593 30.8168 30.1916 30.9282Z" fill="#3A643C"/>
<path d="M41.0693 31.4814C41.2462 31.3824 41.2975 31.1761 41.1857 31.0152C41.0739 30.8585 40.8411 30.809 40.6595 30.908C40.5663 30.9616 38.3544 32.1621 36.5336 30.9245C36.366 30.809 36.1285 30.8379 35.9981 30.9864C35.8677 31.1349 35.9003 31.3453 36.0679 31.4608C36.8363 31.9847 37.6512 32.1579 38.3963 32.1579C39.8306 32.1621 40.9994 31.5227 41.0693 31.4814Z" fill="#3A643C"/>
<path d="M18.205 30.3127C16.4541 30.1683 16.3144 27.6024 16.3144 27.5776C16.3051 27.3961 16.1374 27.2559 15.9325 27.2559C15.7276 27.2559 15.56 27.4002 15.5507 27.5776C15.5507 27.6024 15.411 30.1683 13.66 30.3127C13.4644 30.3292 13.3154 30.4735 13.3154 30.6468C13.3154 30.8201 13.4644 30.9644 13.66 30.981C15.1129 31.1006 15.5181 33.5716 15.5507 34.5122C15.5553 34.6937 15.7276 34.838 15.9325 34.838C16.1374 34.838 16.3051 34.6937 16.3144 34.5122C16.347 33.5716 16.7521 31.1006 18.205 30.981C18.4006 30.9644 18.5496 30.8201 18.5496 30.6468C18.5496 30.4735 18.4006 30.3292 18.205 30.3127ZM15.9325 32.4372C15.7043 31.7606 15.3365 31.08 14.7544 30.6757C15.3365 30.3415 15.7043 29.7929 15.9325 29.2484C16.1607 29.7929 16.5286 30.3415 17.1107 30.6757C16.5286 31.08 16.1607 31.7606 15.9325 32.4372Z" fill="#3A643C"/>
<path d="M53.3398 19.7482C51.5888 19.6038 51.4491 17.0379 51.4491 17.0132C51.4398 16.8317 51.2722 16.6914 51.0673 16.6914C50.8624 16.6914 50.6947 16.8358 50.6854 17.0132C50.6854 17.0379 50.5457 19.6038 48.7948 19.7482C48.5992 19.7647 48.4502 19.9091 48.4502 20.0824C48.4502 20.2556 48.5992 20.4 48.7948 20.4165C50.2477 20.5361 50.6528 23.0071 50.6854 23.9477C50.6901 24.1292 50.8624 24.2736 51.0673 24.2736C51.2722 24.2736 51.4398 24.1292 51.4491 23.9477C51.4817 23.0071 51.8869 20.5361 53.3398 20.4165C53.5353 20.4 53.6844 20.2556 53.6844 20.0824C53.6844 19.9091 53.5353 19.7647 53.3398 19.7482ZM51.0719 21.8727C50.8438 21.1962 50.4759 20.5155 49.8938 20.1112C50.4759 19.7771 50.8438 19.2284 51.0719 18.6839C51.3001 19.2284 51.668 19.7771 52.2501 20.1112C51.6633 20.5155 51.3001 21.1962 51.0719 21.8727Z" fill="#3A643C"/>
<path d="M20.9438 37.2468C20.1522 37.1808 20.087 35.9886 20.087 35.9762C20.0823 35.8566 19.9706 35.7617 19.8355 35.7617C19.7005 35.7617 19.5887 35.8566 19.584 35.9762C19.584 35.9886 19.5095 37.1808 18.7272 37.2468C18.5968 37.2592 18.499 37.3541 18.499 37.4696C18.499 37.5851 18.5968 37.6841 18.7272 37.6923C19.3791 37.746 19.5654 38.934 19.584 39.3466C19.5887 39.4662 19.7005 39.5652 19.8355 39.5652C19.9706 39.5652 20.087 39.4703 20.087 39.3466C20.1009 38.934 20.2919 37.746 20.9438 37.6923C21.0742 37.68 21.172 37.5851 21.172 37.4696C21.172 37.3541 21.0742 37.2592 20.9438 37.2468ZM19.8355 38.1337C19.7331 37.8862 19.584 37.6552 19.3791 37.4902C19.584 37.3499 19.7331 37.1561 19.8355 36.9539C19.938 37.1561 20.087 37.3499 20.2919 37.4902C20.087 37.6552 19.938 37.8862 19.8355 38.1337Z" fill="#3A643C"/>
</svg>
