<svg width="70" height="65" viewBox="0 0 70 65" fill="none" xmlns="http://www.w3.org/2000/svg">
<path d="M69.0312 15.183C64.0414 12.6527 58.2817 13.1549 53.009 14.3842C48.4072 15.495 43.9269 17.1071 39.6503 19.0721C31.227 22.9942 23.5547 28.5665 17.1803 35.3388C13.6015 39.1527 10.3855 43.3621 7.72322 47.8904C7.03511 49.0271 8.84486 50.066 9.49321 48.9187C14.087 41.1578 20.2228 34.3216 27.3938 28.8707C34.5143 23.4489 42.6515 19.3222 51.2983 16.9515C56.6349 15.4837 62.825 14.3297 68.0029 16.953C68.4878 17.2107 69.1191 17.0816 69.4166 16.6073C69.6744 16.1224 69.5161 15.4408 69.0312 15.183Z" fill="#3A643B"/>
<path d="M28.2374 44.0127C23.15 45.5047 18.0334 46.9463 12.946 48.4383C12.3439 48.6179 11.7922 48.7684 11.1901 48.948C10.6384 49.0984 10.0548 49.3682 9.4555 49.3781C8.6759 49.4249 8.53112 48.5338 8.49213 47.8841C8.23532 45.3437 8.15886 42.7663 8.00288 40.1676C7.8235 37.1791 7.60436 34.18 7.42498 31.1915C7.34699 29.8921 5.26025 29.887 5.37801 31.197C5.54958 34.0555 5.72116 36.9141 5.9325 39.7833C6.09627 42.5119 6.16988 45.259 6.46359 47.9798C6.59485 49.0803 6.8745 50.2632 7.80172 50.9378C8.9462 51.7559 10.3308 51.3598 11.535 51.0006C14.214 50.2269 16.8929 49.4533 19.5719 48.6796C22.662 47.803 25.7123 46.9157 28.813 45.9993C30.057 45.6508 29.5211 43.6748 28.2374 44.0127Z" fill="#3A643B"/>
</svg>
